<svg xmlns="http://www.w3.org/2000/svg" viewBox="0 0 183.35 36.2"><defs><style>.cls-1{fill:#221f20;}</style></defs><title>drink-logo</title><g id="Livello_2" data-name="Livello 2"><g id="Livello_1-2" data-name="Livello 1"><path class="cls-1" d="M0,35.6V.6H11.5a19.86,19.86,0,0,1,9.7,2.25,16.05,16.05,0,0,1,6.35,6.2A18,18,0,0,1,29.8,18.1a18,18,0,0,1-2.25,9,16.05,16.05,0,0,1-6.35,6.2,19.86,19.86,0,0,1-9.7,2.25Zm6-5.25h5.6a13.34,13.34,0,0,0,6.33-1.47,10.85,10.85,0,0,0,4.37-4.26,12.76,12.76,0,0,0,1.6-6.52,12.77,12.77,0,0,0-1.6-6.55,10.88,10.88,0,0,0-4.37-4.22,13.23,13.23,0,0,0-6.33-1.48H6Z"/><path class="cls-1" d="M40.25,35.6V.6h15.5a12.76,12.76,0,0,1,6.12,1.48A11.24,11.24,0,0,1,68,12.35a11.19,11.19,0,0,1-1.73,6.18,11.64,11.64,0,0,1-4.57,4.12L65.1,29.2a2.34,2.34,0,0,0,.7.83,1.86,1.86,0,0,0,1,.27h3v5.3H66a6.64,6.64,0,0,1-3.65-1,7.6,7.6,0,0,1-2.55-2.73L55.65,24c-.33,0-.68.05-1,.05H46.2V35.6Zm6-16.8H55a8.14,8.14,0,0,0,3.5-.75A5.78,5.78,0,0,0,61,15.83,6.42,6.42,0,0,0,62,12.35,6.13,6.13,0,0,0,58.5,6.62a7.67,7.67,0,0,0-3.45-.77H46.2Z"/><path class="cls-1" d="M78.2,35.6V30.35h6.5V5.85H78.2V.6h19V5.85H90.7v24.5h6.5V35.6Z"/><path class="cls-1" d="M132,36.2a9.82,9.82,0,0,1-5.15-1.35,9.44,9.44,0,0,1-3.5-3.65,10.41,10.41,0,0,1-1.25-5.1V9.35a4,4,0,0,0-.55-2.07A4.2,4.2,0,0,0,120,5.8a3.83,3.83,0,0,0-2-.55,3.74,3.74,0,0,0-2,.55,4.2,4.2,0,0,0-1.45,1.48A3.91,3.91,0,0,0,114,9.35V35.6h-6V10.1A10.36,10.36,0,0,1,109.3,5a9.46,9.46,0,0,1,3.5-3.63A9.9,9.9,0,0,1,118,0a10,10,0,0,1,5.25,1.35A9.53,9.53,0,0,1,126.75,5,10.46,10.46,0,0,1,128,10.1V26.85a4,4,0,0,0,.55,2.08A4.25,4.25,0,0,0,130,30.4,3.64,3.64,0,0,0,132,31a3.74,3.74,0,0,0,2-.55,4.08,4.08,0,0,0,1.42-1.47,4.15,4.15,0,0,0,.53-2.08V.6h6V26.1a10.52,10.52,0,0,1-1.25,5.1,9.54,9.54,0,0,1-3.48,3.65A9.85,9.85,0,0,1,132,36.2Z"/><path class="cls-1" d="M153.8,35.6V.6h5.95V15.75h7.9a8.26,8.26,0,0,0,3.47-.72,5.77,5.77,0,0,0,3.43-5.48V.6h5.95V9.5a10.82,10.82,0,0,1-1.7,6.05,11.87,11.87,0,0,1-4.5,4.05l4.4,9.6a1.71,1.71,0,0,0,.65.85,1.9,1.9,0,0,0,1.05.25h2.95v5.3H179.5a6.92,6.92,0,0,1-3.88-1,6.39,6.39,0,0,1-2.32-2.75l-5-10.9-1.05.08-1.1,0h-6.4V35.6Z"/></g></g></svg>