<svg xmlns="http://www.w3.org/2000/svg" viewBox="0 0 65.62 65.18"><defs><style>.cls-1{fill:#1b4d74;}</style></defs><title>Risorsa 8</title><g id="Livello_2" data-name="Livello 2"><g id="Livello_1-2" data-name="Livello 1"><path class="cls-1" d="M64.35,58.43a4.72,4.72,0,0,0-3.07-1.09c-5.79.17-10.18.27-16,.34A1.52,1.52,0,0,0,46,56.44a1.5,1.5,0,0,0-1.5-1.5H35.32c-.33,0-.88,0-.88-1.56V46.59a6.4,6.4,0,0,1,.82-1.94c.7-1.31,1.5-2.79,1-4.26a4,4,0,0,0-.4-.86c3.59-1.31,5.93-4.33,6.67-8.75.2-1.2.4-2.51.61-3.87.86-5.51,2-13.07,3.41-14.86a1.54,1.54,0,0,0,.3-1.12s0-.1,0-.16a1.5,1.5,0,0,0-1.5-1.49h0l-14.62.09a2.74,2.74,0,0,0-.08-.88c-.37-1.14-2.46-6-2.48-6.06a1.05,1.05,0,0,0-.07-.11A4.73,4.73,0,0,0,26.82.83a3.4,3.4,0,0,0-4.4,0,1,1,0,0,0-.2,1.15l2.51,5.28a3.5,3.5,0,0,0-.57,2.2l-4,0a1.51,1.51,0,0,0-1.49,1.51s0,.06,0,.1a1.5,1.5,0,0,0,.3,1c1.38,1.79,2.55,9.35,3.41,14.86.21,1.36.42,2.67.62,3.87.75,4.51,3.17,7.56,6.89,8.82a4.35,4.35,0,0,0-.36.79c-.46,1.47.34,3,1,4.26a6.4,6.4,0,0,1,.82,1.94v6.79c0,1.56-.55,1.56-.89,1.56H21.43a1.5,1.5,0,0,0-.84,2.74c-5.91-.07-10.4-.17-16.29-.34A4,4,0,0,0,0,61.05a3.46,3.46,0,0,0,1.25,2.62,4.59,4.59,0,0,0,3,1.09c10,.28,18.54.42,28.55.42s18.61-.14,28.54-.42c2.36,0,4.28-1.67,4.28-3.71A3.43,3.43,0,0,0,64.35,58.43ZM32.94,40.62a1.78,1.78,0,0,1,.49.66,3.56,3.56,0,0,1-.49,1.34,3.69,3.69,0,0,1-.5-1.32A1.79,1.79,0,0,1,32.94,40.62Zm.23-17.17c.35.76.73,1.63.9,2.1a1.74,1.74,0,0,1,.13.64.7.7,0,0,1-.59-.1,9.79,9.79,0,0,1-1-1.75A4.48,4.48,0,0,1,33.17,23.45Zm-.27-2.87-.29.36s0,0,0,0h0l-.18.22c-.3.36-.56.69-.79,1-.27-.62-.55-1.28-.83-2a2.06,2.06,0,0,1,.45-2.54l.2-.25c.06-.08.28-.38.53-.79.31.71.65,1.48,1,2.2C33.45,19.94,33.33,20.07,32.9,20.58Zm-5.27-8.19,1,.34.53.17a2.71,2.71,0,0,1,1.7,1.25,4.08,4.08,0,0,1-.64,1.52c-1.29-.4-1.51-.73-1.52-.74-.22-.36-.73-1.46-1.21-2.54Zm1.14-3-2.59,0c-.12-.6.13-1,.8-1.91.23-.32.49-.67.74-1.07.48,1.16.92,2.25,1.05,2.64A1.65,1.65,0,0,1,28.77,9.38ZM24.46,2a2.25,2.25,0,0,1,1.19.45,1.81,1.81,0,0,1,.79,2.2,6.35,6.35,0,0,1-.39.68ZM26,30.28c-.19-1.18-.4-2.48-.61-3.83-1-6.17-1.78-11.06-2.88-14l2.79,0c.79,1.77,1.38,3.06,1.7,3.58a3.78,3.78,0,0,0,2,1.39,3.85,3.85,0,0,0-.09,3.6c.51,1.27,2.26,5.48,3.22,6.49a2.64,2.64,0,0,0,1.88.76,2.28,2.28,0,0,0,1.22-.33c.35-.21,1.41-1.06.69-3-.28-.75-1-2.32-1.38-3.16.67-.83,1.08-1.75.2-3.69-.53-1.17-1.1-2.47-1.51-3.4-.27-.62-.47-1.08-.55-1.23a.51.51,0,0,0-.09-.16,3.39,3.39,0,0,0-.63-.86l11.16-.06c-1.12,2.95-2,7.89-2.93,14.15-.21,1.35-.41,2.65-.61,3.83-.7,4.15-3,6.47-6.8,6.9C29,36.75,26.7,34.43,26,30.28ZM61.32,61.76h0c-19.83.56-37.11.56-57,0-.79,0-1.3-.43-1.3-.71s.51-.71,1.25-.71c19.89.57,37.23.57,57.07,0,.78,0,1.3.43,1.3.71S62.1,61.76,61.32,61.76Z"/></g></g></svg>