<svg xmlns="http://www.w3.org/2000/svg" viewBox="0 0 66.46 47"><defs><style>.cls-1{fill:#221f20;}</style></defs><title>vassoio</title><g id="Livello_2" data-name="Livello 2"><g id="Livello_1-2" data-name="Livello 1"><path class="cls-1" d="M33.23,47c-10,0-20-.14-29.94-.42A3,3,0,0,1,0,43.87a3.06,3.06,0,0,1,3.3-2.71c19.87.57,40,.57,59.84,0,1.83,0,3.32,1.22,3.32,2.71a3.06,3.06,0,0,1-3.3,2.71C53.23,46.86,43.23,47,33.23,47ZM3.29,42.16C2,42.16,1,42.93,1,43.87s1,1.71,2.3,1.71c19.87.57,40,.57,59.84,0h0c1.27,0,2.31-.77,2.31-1.71s-1-1.71-2.31-1.71C43.3,42.73,23.16,42.73,3.29,42.16Z"/><path class="cls-1" d="M55.55,20.25a1.23,1.23,0,0,0-.92-.41l-7.3,0-1.63-.57a1.75,1.75,0,0,0-1.94.58l-8,0a1.25,1.25,0,0,0-.92.41,1.24,1.24,0,0,0-.3,1l2,17.64c0,.26.05.51.07.77l0,.33h0l0,.26a1.81,1.81,0,0,0,1.8,1.6l13.34,0a1.79,1.79,0,0,0,1.72-1.31h0l0-.33,2.19-19A1.24,1.24,0,0,0,55.55,20.25Zm-7.18,1a.75.75,0,0,1,.45.95l-1,3a.77.77,0,0,1-.38.43.71.71,0,0,1-.57,0l-3-1a.73.73,0,0,1-.46-.94l1-2.82h2.8ZM45,29.19l-.81-2.94a1.5,1.5,0,0,0-.26-.54l2.31.8a1.69,1.69,0,0,0-.78,1ZM43.2,26.52,44,29.57a.81.81,0,0,1-.07.57.74.74,0,0,1-.45.34l-3.06.84h0a.73.73,0,0,1-.56-.07.72.72,0,0,1-.35-.45l-.84-3.05a.75.75,0,0,1,.52-.92L42.29,26l.19,0a.69.69,0,0,1,.37.1A.7.7,0,0,1,43.2,26.52Zm2.35,4.33.84-3.06a.75.75,0,0,1,.92-.51l3,.85a.73.73,0,0,1,.52.91L50,32.09a.75.75,0,0,1-.35.45.73.73,0,0,1-.56.07l-3.06-.85A.74.74,0,0,1,45.55,30.85Zm-7.82,9.3-.16-1.34c-.13-1.41-.18-2.83.37-3.5a1.33,1.33,0,0,1,1-.44,1.42,1.42,0,0,1,1.14.34c.92.86,1.1,3.27,1.13,5.64H38.53A.8.8,0,0,1,37.73,40.15Zm5.7-4.6a2,2,0,0,1,1.7-.7,1.77,1.77,0,0,1,1.22.71,8.57,8.57,0,0,1,1.38,5.27l-5.44,0C42.05,38.54,42.46,36.57,43.43,35.55Zm8.43,5.27h-3c0-2.37.18-4.79,1.1-5.64a1.35,1.35,0,0,1,1.13-.35,1.33,1.33,0,0,1,1,.48c.85,1,.71,3.44.6,4.71v.08A.8.8,0,0,1,51.86,40.82Zm1.36-5.54a3.17,3.17,0,0,0-.39-.61,2.34,2.34,0,0,0-1.68-.83,2.41,2.41,0,0,0-1.89.62,4.34,4.34,0,0,0-1.11,2.41,6.19,6.19,0,0,0-1-2,2.7,2.7,0,0,0-1.91-1,3,3,0,0,0-2.5,1,4.59,4.59,0,0,0-.94,1.55,4,4,0,0,0-1-1.94,2.47,2.47,0,0,0-1.9-.61,2.32,2.32,0,0,0-1.66.8.41.41,0,0,0-.07.11L35.54,21.15a.22.22,0,0,1,.05-.18.25.25,0,0,1,.18-.08l7.54,0-.87,2.49A1.76,1.76,0,0,0,42.7,25,1.73,1.73,0,0,0,42,25L39,25.87a1.71,1.71,0,0,0-1.06.82A1.69,1.69,0,0,0,37.75,28l.83,3.06a1.75,1.75,0,0,0,1.69,1.28,1.88,1.88,0,0,0,.46-.06l3.05-.84a1.76,1.76,0,0,0,.75-.43,1.74,1.74,0,0,0,1.27,1.71l3.05.84a1.49,1.49,0,0,0,.47.07A1.75,1.75,0,0,0,51,32.36l.85-3.05a1.75,1.75,0,0,0-1.21-2.15L48,26.43a1.71,1.71,0,0,0,.72-.89l1-3a1.75,1.75,0,0,0-.08-1.33,1.57,1.57,0,0,0-.24-.37h5.18a.25.25,0,0,1,.17.07.22.22,0,0,1,.06.18Z"/><path class="cls-1" d="M30.07,4.91a.5.5,0,0,0-.5-.5h0l-11.72,0,0-.14c-.23-.56-1.35-2.69-1.63-3.23a.25.25,0,0,1,0-.07l0-.05L16.06.89a2.29,2.29,0,0,0-.51-.52c-.41-.3-1-.53-1.39-.22A.37.37,0,0,0,14,.58l1.1,2.73a.31.31,0,0,1-.05.1L15,3.64l-.8-1.51A.38.38,0,0,0,13.66,2a.36.36,0,0,0-.15.5l1,1.92.07.08H11.92a.5.5,0,0,0-.5.5s0,0,0,0a.45.45,0,0,0,.09.39C12.57,6.8,13.37,12,14,16.1c.15.95.29,1.87.43,2.7a6.84,6.84,0,0,0,5.21,6,2.68,2.68,0,0,0-.66,1,3.59,3.59,0,0,0,.68,2.56A4.25,4.25,0,0,1,20.3,30v9c0,1.65-.89,1.65-1.18,1.64H12.72a.51.51,0,0,0-.5.5.5.5,0,0,0,.5.5l16.12,0a.5.5,0,1,0,0-1H22.45c-.29,0-1.17,0-1.16-1.65V30a4.29,4.29,0,0,1,.64-1.61,3.52,3.52,0,0,0,.69-2.56,2.5,2.5,0,0,0-.7-1.07A6.87,6.87,0,0,0,27,18.82c.14-.84.28-1.75.43-2.7C28.1,12,28.92,6.83,30,5.46A.51.51,0,0,0,30,5,.27.27,0,0,0,30.07,4.91Zm-10.36,8.7s0,0,0,0a.6.6,0,0,1,.06-.29c.21.44.47,1,.65,1.34A5.84,5.84,0,0,1,19.71,13.61Zm-.1-1.67-.18.3v0l0,0-.05.1-.16.32c-.22-.4-.45-.84-.68-1.3a1.66,1.66,0,0,1,.13-1.85l.09-.18a5.89,5.89,0,0,0,.39-.91L20,10A1.91,1.91,0,0,1,19.61,11.94ZM18.18,8.81c-.84-.08-1.05-.26-1.1-.32-.19-.26-.7-1.19-1.11-1.94v0c.35.08.75.14,1.18.2l.3,0a1.35,1.35,0,0,1,1.12.66A2.91,2.91,0,0,1,18.18,8.81Zm-1.5-2.9a3.16,3.16,0,0,1-1.28-.37v0a.09.09,0,0,0,0,0h1.67A.82.82,0,0,1,16.68,5.91ZM15.43,4.47a6,6,0,0,1,.33-.71c.15-.29.31-.61.46-1,.34.66.68,1.34.84,1.68ZM15,.89a1.49,1.49,0,0,1,.41.36.83.83,0,0,1,.13.18l0,.05a1,1,0,0,1,.05.89v0Zm6.08,27-.26.49-.25-.49c-.35-.65-.74-1.38-.62-1.79a2.45,2.45,0,0,1,.88-1,2.51,2.51,0,0,1,.87,1C21.81,26.51,21.41,27.24,21.06,27.89ZM26.47,16c-.15.95-.3,1.86-.44,2.69-.37,2.19-1.58,4.89-5.28,5.29h-.07c-3.69-.42-4.9-3.11-5.26-5.3-.14-.83-.28-1.75-.43-2.69-.61-4-1.3-8.42-2.28-10.47H14.6a2,2,0,0,0,.12.37h0l.58,1c.56,1,1,1.75,1.17,2a2.06,2.06,0,0,0,1.34.59,2.27,2.27,0,0,0,0,2.22A18.41,18.41,0,0,0,20,15.24a1.13,1.13,0,0,0,.72.3.63.63,0,0,0,.41-.13.69.69,0,0,0,.08-.93c-.23-.43-.78-1.6-1-2l.06-.11a1.74,1.74,0,0,1,.11-.18l.69,1.31a.38.38,0,0,0,.33.2.41.41,0,0,0,.18-.05.36.36,0,0,0,.15-.5l-1-1.81a2,2,0,0,0-.14-1.69l-1-1.88c-.18-.34-.32-.59-.37-.67a.35.35,0,0,0,0-.08A2.19,2.19,0,0,0,17.57,6c.05-.08.11-.14.15-.22a2.47,2.47,0,0,0,.11-.36l11,0C27.81,7.41,27.1,11.92,26.47,16Z"/></g></g></svg>